<?xml version="1.0" standalone="no"?>
<!DOCTYPE svg PUBLIC "-//W3C//DTD SVG 20010904//EN"
 "http://www.w3.org/TR/2001/REC-SVG-20010904/DTD/svg10.dtd">
<svg version="1.0" xmlns="http://www.w3.org/2000/svg"
 width="512.000000pt" height="512.000000pt" viewBox="0 0 512.000000 512.000000"
 preserveAspectRatio="xMidYMid meet">

<g transform="translate(0.000000,512.000000) scale(0.100000,-0.100000)"
fill="#000000" stroke="none">
<path d="M740 1793 c0 -1446 0 -1463 20 -1517 29 -76 88 -139 168 -178 l67
-33 440 0 c242 0 901 1 1465 2 l1024 3 -44 45 -44 45 -1391 0 c-1527 0 -1451
-3 -1527 60 -20 16 -45 49 -56 72 -20 42 -20 74 -26 1458 l-7 1415 -44 45 -45
45 0 -1462z"/>
<path d="M1192 2388 c-15 -15 -15 -51 0 -66 9 -9 79 -12 252 -12 l240 0 -44
45 -44 45 -196 0 c-139 0 -199 -3 -208 -12z"/>
<path d="M1192 1818 c-15 -15 -15 -51 0 -66 9 -9 142 -12 537 -12 l525 0 -44
45 -44 45 -481 0 c-361 0 -484 -3 -493 -12z"/>
<path d="M1187 1253 c-11 -11 -8 -58 5 -71 9 -9 205 -12 822 -12 l810 0 -44
45 -44 45 -771 0 c-425 0 -775 -3 -778 -7z"/>
<path d="M1198 689 c-21 -12 -24 -59 -6 -77 9 -9 185 -12 729 -12 649 0 719 2
734 16 22 23 15 56 -15 71 -32 16 -1415 18 -1442 2z"/>
</g>
</svg>
